Coordinates
version=1
nRows=9
nColumns=36
inDegrees=yes

Units are S.I. units (second, meters, Newtons, ...)
If the header above contains a line with 'inDegrees', this indicates whether rotational values are in degrees (yes) or radians (no).

endheader
time	pelvis_tilt	pelvis_list	pelvis_rotation	pelvis_tx	pelvis_ty	pelvis_tz	hip_flexion_r	hip_adduction_r	hip_rotation_r	knee_angle_r	knee_angle_r_beta	ankle_angle_r	subtalar_angle_r	mtp_angle_r	hip_flexion_l	hip_adduction_l	hip_rotation_l	knee_angle_l	knee_angle_l_beta	ankle_angle_l	subtalar_angle_l	mtp_angle_l	lumbar_extension	lumbar_bending	lumbar_rotation	arm_flex_r	arm_add_r	arm_rot_r	elbow_flex_r	pro_sup_r	arm_flex_l	arm_add_l	arm_rot_l	elbow_flex_l	pro_sup_l
      4.40000000	    -30.08570698	      0.03914861	      2.29075072	      0.74472411	      0.80621929	     -0.01658271	     74.62199650	    -11.89495745	     -5.82299541	     67.93092576	      1.18561832	     28.91958735	     -6.31886823	     -7.49999987	     75.47708890	    -12.78083774	     -4.52479599	     63.22799732	      1.10353673	     21.41558192	     -7.11809427	     -7.49999987	    -22.00545255	     -1.62993043	      0.85706898	     74.25847404	    -23.84560502	     10.74167862	     96.81869284	     93.76985963	     63.85884202	    -35.47471301	      1.48878628	    126.88415165	     74.64053009
      4.41666670	    -32.21713554	     -0.49560181	      1.90331069	      0.74466066	      0.77687582	     -0.01166026	     80.49889310	    -11.39420162	     -5.18211579	     73.50435949	      1.28289309	     30.83518229	     -6.28300681	     -7.49999987	     81.59967263	    -14.02120037	     -3.38475911	     68.72766349	      1.19952402	     23.25864876	     -7.05814501	     -7.49999987	    -22.02551349	     -1.43748316	      0.39647902	     77.14068684	    -21.56295697	     10.54780485	     98.87066836	     94.90368370	     68.61243537	    -36.06590763	      3.52574385	    126.31821799	     75.01507902
      4.43333330	    -33.69584930	     -0.87930596	      1.54256614	      0.74936656	      0.75883771	     -0.00744287	     84.97295822	    -10.85556825	     -4.63022794	     78.17847739	      1.36447183	     32.51948864	     -6.26433653	     -7.49999987	     86.32328974	    -15.05910331	     -2.28533337	     73.39740017	      1.28102630	     25.05940960	     -6.67339014	     -7.49999987	    -22.05307798	     -1.61615659	      0.62305433	     79.30788522	    -19.94578004	     10.24063771	    100.31630369	     94.91684265	     72.30506744	    -35.21349384	      4.93471238	    126.50676211	     75.22263196
      4.45000000	    -34.91499927	     -1.05159409	      1.36068121	      0.74935533	      0.74845266	     -0.01432284	     88.51496980	    -10.59966380	     -4.03543296	     81.81240784	      1.42789589	     33.51398583	     -6.38256797	     -7.49999987	     89.98565415	    -15.67771709	     -1.45985238	     77.09102332	      1.34549218	     26.51826885	     -6.18251124	     -7.49999987	    -22.67973380	     -2.18734236	      1.68512254	     79.92925056	    -20.52787317	      8.95923858	    102.08256525	     95.43588246	     74.88451667	    -32.63631175	      8.33101144	    125.89349847	     77.45150578
      4.46666670	    -36.37109983	     -1.35922868	      1.41775352	      0.71416484	      0.73719558	     -0.01608757	     92.17589603	    -10.62809664	     -3.64964590	     84.56829492	      1.47599519	     33.50993055	     -6.49980388	     -7.49999987	     94.01006902	    -15.98978559	     -0.75218961	     80.16537697	      1.39914977	     27.02879270	     -5.98921500	     -7.49999987	    -23.70476521	     -1.82476171	      1.86943711	     85.49285413	    -19.94928278	      9.67668769	     98.09298359	     95.51761656	     80.09663083	    -31.24662416	     11.83991852	    123.04036034	     77.94774274
      4.48333330	    -37.44305815	     -1.49987362	      1.40827585	      0.71472945	      0.71227361	     -0.01028355	     95.68416304	    -10.62307013	     -3.22405000	     87.41073441	      1.52560512	     33.71089820	     -6.35788387	     -7.49999987	     97.64452513	    -16.24428827	     -0.08623761	     83.09610102	      1.45030056	     27.21977929	     -6.20560986	     -7.49999987	    -23.78308447	     -2.09358131	      2.22820659	     87.56564066	    -19.56891478	      9.21002124	     98.31594220	     93.66787069	     85.39819848	    -29.09316368	     14.18079502	    121.14224831	     78.41841922
      4.50000000	    -38.08203606	     -1.69833252	      1.35991748	      0.72145959	      0.70362007	     -0.00690545	     98.29414428	    -10.51271090	     -2.95162105	     89.82896708	      1.56781124	     33.94431785	     -6.25580487	     -7.49999987	    100.44514374	    -16.46538283	      0.67149384	     85.59995293	      1.49400102	     27.53278803	     -6.33409651	     -7.49999987	    -24.03968981	     -1.96107598	      2.01729753	     88.63784275	    -18.32515768	      9.30356327	     99.36759298	     94.61387452	     87.15823587	    -28.50999743	     14.08642652	    121.29910446	     79.02367937
      4.51666670	    -38.64101549	     -2.07980050	      1.34542014	      0.73587759	      0.70162966	     -0.00738152	     99.79078573	    -10.44064716	     -2.98657017	     91.37383023	      1.59477419	     34.28705023	     -6.49963516	     -7.49999987	    102.28135189	    -16.52376522	      1.52127009	     87.36409057	      1.52479103	     28.10330589	     -6.15557936	     -7.49999987	    -24.39000476	     -1.85471785	      2.17077929	     87.76283242	    -17.87294024	      8.53112599	    101.39327658	     94.43797194	     86.75374106	    -28.37699377	     15.26174326	    121.38246151	     79.92258722
      4.53333330	    -39.00951726	     -2.35208946	      1.33149617	      0.74253209	      0.69941485	     -0.01053974	    100.48660115	    -10.36841073	     -2.95197471	     92.28163383	      1.61061835	     34.55583698	     -6.65734563	     -7.49999987	    103.20572644	    -16.60342912	      2.02459672	     88.55719680	      1.54561466	     28.91010470	     -5.56062773	     -7.49999987	    -25.04756557	     -1.89145270	      2.40568214	     86.61934973	    -18.36029440	      8.09643447	    102.89110259	     94.29643873	     86.32313108	    -27.88414610	     16.32924186	    123.19258271	     80.76118680
